<?xml version="1.0" standalone="no"?>
<!DOCTYPE svg PUBLIC "-//W3C//DTD SVG 20010904//EN"
 "http://www.w3.org/TR/2001/REC-SVG-20010904/DTD/svg10.dtd">
<svg version="1.0" xmlns="http://www.w3.org/2000/svg"
 width="736.000000pt" height="719.000000pt" viewBox="0 0 736.000000 719.000000"
 preserveAspectRatio="xMidYMid meet">

<g transform="translate(0.000000,719.000000) scale(0.100000,-0.100000)"
fill="#000000" stroke="none">
<path d="M3642 6938 c3 -17 1 -25 -7 -22 -6 3 -12 -2 -12 -10 0 -8 3 -13 6
-11 3 2 7 -70 9 -158 1 -89 7 -288 13 -442 16 -434 26 -1052 18 -1109 -4 -28
-8 -92 -8 -143 -1 -63 -5 -93 -13 -96 -7 -3 -8 -6 -3 -6 7 -1 9 -147 7 -423
-2 -296 0 -439 8 -477 7 -29 13 -82 14 -116 1 -42 7 -69 17 -82 9 -10 16 -26
16 -36 0 -17 -12 -14 -12 4 0 19 -20 9 -25 -13 -5 -18 -8 -20 -15 -9 -13 22
-24 -17 -14 -51 4 -15 5 -37 2 -49 -5 -17 -3 -20 8 -14 11 6 12 5 2 -6 -15
-16 -17 -33 -3 -24 6 3 10 2 10 -4 0 -18 -17 -21 -64 -12 -31 6 -43 5 -39 -2
4 -6 0 -8 -11 -4 -9 4 2 -11 24 -32 27 -26 40 -47 42 -67 1 -28 3 -40 8 -56 6
-19 8 -31 11 -75 1 -30 5 -10 8 52 3 55 3 102 -1 103 -5 2 -8 17 -8 33 0 18 4
28 10 24 6 -3 10 -17 10 -31 0 -15 4 -23 11 -19 6 4 8 13 5 21 -3 8 3 23 14
34 12 12 15 20 8 20 -10 0 -10 2 0 9 8 4 13 10 13 12 0 2 2 14 5 27 7 26 24
29 25 5 0 -12 2 -13 6 -5 4 11 8 10 22 -2 9 -8 32 -19 51 -25 31 -9 28 -10
-33 -8 -45 2 -62 0 -51 -6 14 -8 12 -12 -15 -23 -30 -12 -46 -49 -17 -38 8 3
17 0 21 -6 5 -8 13 -6 26 6 18 16 20 16 46 -7 15 -13 34 -32 41 -42 16 -21
140 -106 199 -136 24 -12 64 -24 89 -28 30 -4 41 -9 32 -14 -31 -20 169 -14
262 8 36 9 78 15 93 14 19 -1 26 2 21 10 -4 7 0 9 13 5 10 -3 41 -1 69 4 27 6
81 15 119 20 39 6 111 17 160 25 162 27 397 55 580 70 99 8 254 21 345 29 367
32 519 40 821 40 174 1 313 3 309 6 -4 3 21 5 56 6 36 0 69 5 75 11 7 7 -2 10
-31 10 -23 0 -46 5 -53 12 -6 6 -22 11 -35 11 -13 0 -20 4 -17 10 3 6 17 10
31 10 13 0 24 -4 24 -10 0 -5 17 -10 38 -9 l37 1 -35 10 c-81 22 -274 52 -410
63 -41 3 -115 13 -165 20 -49 8 -144 21 -210 30 -202 27 -411 56 -535 75 -215
34 -601 114 -765 160 -234 66 -337 117 -495 249 -30 25 -50 40 -46 32 13 -20
-27 -6 -104 38 -90 50 -99 54 -150 57 -63 5 -92 13 -85 23 3 5 -1 11 -7 13 -9
3 -13 26 -14 66 0 34 -5 67 -12 74 -7 7 -12 8 -12 2 0 -6 5 -15 12 -22 9 -9 9
-12 0 -12 -7 0 -12 -7 -12 -15 0 -8 -5 -15 -10 -15 -7 0 -10 -50 -10 -137 0
-92 -4 -156 -14 -192 -18 -64 -31 -82 -19 -26 4 22 7 57 6 78 0 22 4 37 10 37
8 0 8 3 -1 8 -10 7 -10 18 0 57 10 39 10 49 1 52 -7 3 -13 12 -13 22 0 9 -9
27 -20 39 -11 12 -20 26 -20 31 0 6 -12 47 -26 93 -22 67 -28 79 -35 63 -6
-14 -7 -10 -3 14 4 23 3 31 -5 27 -7 -5 -10 1 -9 16 1 13 -7 50 -16 83 -24 81
-26 87 -41 183 -13 85 -24 114 -26 71 -1 -13 0 -28 1 -34 1 -5 4 -17 5 -25 2
-8 4 -15 5 -15 1 0 8 -29 15 -65 32 -163 44 -234 41 -237 -3 -4 -32 98 -41
149 -4 21 -10 36 -14 34 -3 -2 -5 19 -3 47 3 48 2 51 -13 33 -16 -21 -21 -10
-5 14 5 8 5 17 0 20 -4 3 -11 23 -15 44 -6 28 -5 37 4 32 8 -6 11 19 8 93 -4
112 4 120 21 21 38 -227 106 -495 123 -484 5 3 6 -2 3 -10 -5 -14 55 -155 68
-156 9 0 28 58 28 86 0 19 4 23 23 20 12 -3 27 -5 32 -5 6 -1 28 -22 50 -48
22 -27 32 -42 22 -34 -27 21 -49 6 -45 -31 3 -38 38 -55 38 -19 0 26 35 24 58
-4 17 -20 17 -20 -5 -1 -14 12 -23 14 -23 7 0 -7 -5 -9 -12 -5 -10 6 -10 5 -1
-8 7 -8 9 -19 5 -24 -4 -4 1 -2 10 5 15 11 22 9 49 -13 35 -30 82 -56 110 -61
15 -3 17 -1 10 13 -17 30 -40 57 -41 46 0 -5 5 -15 12 -22 8 -8 8 -12 1 -12
-13 0 -47 55 -56 90 -3 14 -23 52 -43 85 -79 131 -172 303 -191 355 -48 130
-131 620 -178 1055 -19 175 -59 439 -79 522 -8 32 -20 92 -28 133 -12 67 -13
71 -16 34 -3 -46 43 -573 59 -674 14 -90 18 -128 24 -260 3 -63 12 -146 19
-185 8 -38 17 -90 20 -115 l5 -45 -14 50 -14 50 2 -46 c1 -31 -2 -46 -10 -46
-8 0 -10 9 -6 25 4 17 2 23 -6 18 -6 -4 -11 -17 -12 -29 -2 -51 -18 38 -24
136 -11 165 -12 173 -19 185 -4 6 -6 60 -5 119 0 59 -4 160 -11 223 -7 63 -16
189 -20 280 l-7 165 -3 -115 c-3 -109 -3 -112 -10 -50 -4 36 -7 151 -7 255 1
178 1 182 6 63 3 -69 10 -130 15 -135 4 -4 6 39 4 99 -2 61 0 102 5 95 5 -7 6
7 2 33 -3 24 -11 47 -17 51 -6 4 -12 44 -13 89 -2 48 -8 87 -15 94 -10 8 -11
5 -8 -16z m121 -838 c4 -68 3 -81 -3 -45 -9 52 -13 152 -6 144 2 -2 6 -47 9
-99z m24 -132 c-3 -7 -5 -2 -5 12 0 14 2 19 5 13 2 -7 2 -19 0 -25z m21 -113
c-1 -31 -16 35 -16 70 0 25 2 24 9 -10 4 -22 8 -49 7 -60z m-121 -368 c-1 -67
-3 -9 -3 128 0 138 2 192 3 122 2 -71 2 -183 0 -250z m130 311 c-3 -7 -5 -2
-5 12 0 14 2 19 5 13 2 -7 2 -19 0 -25z m20 -100 c-3 -8 -6 -5 -6 6 -1 11 2
17 5 13 3 -3 4 -12 1 -19z m10 -70 c-3 -7 -5 -2 -5 12 0 14 2 19 5 13 2 -7 2
-19 0 -25z m-120 -30 c-3 -8 -6 -5 -6 6 -1 11 2 17 5 13 3 -3 4 -12 1 -19z
m100 -95 c-3 -10 -5 -4 -5 12 0 17 2 24 5 18 2 -7 2 -21 0 -30z m-96 -213 c-7
-18 -9 12 -9 100 l1 125 9 -100 c5 -60 5 -109 -1 -125z m-24 -213 c-1 -45 -3
-5 -3 88 0 94 2 130 3 82 2 -48 2 -125 0 -170z m-20 -124 c-1 -54 -3 -12 -3
92 0 105 2 149 3 98 2 -51 2 -136 0 -190z m5 -318 l-9 -140 -1 155 c-1 85 2
166 6 180 12 42 13 -37 4 -195z m339 35 c5 0 9 -5 9 -10 0 -14 93 -152 114
-169 29 -24 17 -1 -29 56 -25 30 -45 58 -46 61 0 4 -2 15 -4 25 -2 9 1 14 7
11 5 -3 7 -8 4 -11 -7 -7 23 -51 91 -131 56 -66 74 -106 23 -50 -16 18 -30 28
-30 22 0 -5 21 -31 46 -57 25 -26 43 -47 40 -47 -13 0 -65 37 -60 43 3 3 -23
41 -58 84 -35 43 -74 95 -86 115 -14 22 -28 35 -36 32 -8 -3 -21 5 -30 17 -11
17 -16 19 -20 8 -2 -8 -6 -21 -9 -31 -8 -22 3 -30 21 -15 13 10 15 9 8 -8 -4
-11 -10 -35 -13 -52 -3 -18 -10 -33 -14 -33 -5 0 -8 3 -8 8 3 19 -2 25 -11 12
-7 -11 -10 -2 -10 31 0 43 7 76 32 142 l11 28 24 -41 c13 -22 28 -40 34 -40z
m24 30 c13 -27 14 -32 2 -20 -8 8 -18 26 -22 40 -9 32 -2 25 20 -20z m-285
-10 c0 -16 4 -30 9 -30 4 0 13 -27 18 -59 5 -33 6 -58 2 -56 -4 3 -9 -10 -12
-28 -2 -17 0 -35 5 -38 5 -3 6 -18 3 -32 -4 -15 -11 -24 -16 -21 -5 3 -7 9 -4
14 3 5 1 11 -5 15 -14 9 -13 -5 6 -56 13 -37 13 -54 3 -106 -10 -57 -35 -103
-54 -103 -4 0 -5 28 -2 62 3 39 2 56 -4 47 -5 -8 -9 -27 -10 -44 0 -16 -3 -24
-6 -17 -3 8 0 41 7 75 7 34 12 113 11 175 -1 62 2 112 7 112 5 0 12 27 16 60
7 62 26 84 26 30z m-103 -42 c-2 -13 -4 -3 -4 22 0 25 2 35 4 23 2 -13 2 -33
0 -45z m180 -60 c-3 -8 -6 -5 -6 6 -1 11 2 17 5 13 3 -3 4 -12 1 -19z m-180
-70 c-2 -13 -4 -3 -4 22 0 25 2 35 4 23 2 -13 2 -33 0 -45z m10 -70 c-3 -8 -6
-5 -6 6 -1 11 2 17 5 13 3 -3 4 -12 1 -19z m180 0 c-3 -8 -6 -5 -6 6 -1 11 2
17 5 13 3 -3 4 -12 1 -19z m56 -8 c-3 -12 -8 -19 -11 -16 -5 6 5 36 12 36 2 0
2 -9 -1 -20z m-246 -142 c-2 -13 -4 -5 -4 17 -1 22 1 32 4 23 2 -10 2 -28 0
-40z m263 0 c0 -5 -7 -3 -15 6 -8 8 -15 18 -15 22 0 3 7 1 15 -6 8 -7 15 -17
15 -22z m-263 -85 c-3 -10 -5 -2 -5 17 0 19 2 27 5 18 2 -10 2 -26 0 -35z
m281 -98 c-12 -47 -23 -83 -25 -81 -7 6 21 166 28 166 4 0 5 10 3 23 l-5 22
10 -22 c7 -16 4 -46 -11 -108z m212 85 c0 -5 9 -10 19 -10 11 0 23 -9 26 -20
5 -15 15 -20 40 -20 18 0 35 -6 38 -12 4 -13 24 -16 135 -17 64 -1 77 -12 45
-38 -16 -12 -11 -14 39 -10 37 2 56 0 55 -7 -1 -6 11 -12 26 -14 16 -2 31 -11
35 -20 10 -28 29 -44 35 -29 4 9 8 9 15 -2 6 -8 15 -10 22 -6 9 6 11 4 5 -5
-5 -9 -2 -10 14 -5 12 4 27 2 34 -3 7 -6 26 -12 42 -15 50 -8 149 -41 164 -55
10 -10 16 -10 27 -1 9 7 14 8 14 1 0 -6 14 -13 30 -17 17 -4 28 -11 24 -16 -3
-5 -2 -9 3 -9 4 -1 42 -2 85 -4 59 -3 83 -8 107 -26 22 -15 39 -20 57 -16 18
5 23 3 19 -4 -5 -8 14 -11 64 -9 39 1 74 -1 78 -4 12 -12 65 -8 57 5 -4 6 -3
8 4 4 17 -10 173 -35 268 -42 62 -5 82 -10 69 -16 -13 -5 -3 -7 28 -3 26 2 46
1 43 -3 -3 -5 9 -6 26 -4 22 3 29 1 24 -7 -5 -8 5 -10 36 -6 42 5 42 4 8 -5
-19 -6 -55 -8 -80 -5 -34 5 -41 3 -30 -5 12 -9 11 -10 -7 -5 -30 8 -94 14
-223 20 -59 2 -127 9 -151 14 -64 14 -291 43 -296 37 -3 -2 22 -7 54 -11 32
-4 137 -21 233 -37 96 -17 210 -34 252 -38 43 -3 81 -9 85 -13 7 -8 -122 0
-208 13 -31 5 -87 4 -125 0 -38 -5 -188 -10 -334 -11 l-265 -2 234 -8 c128 -5
236 -11 240 -15 3 -4 -61 -4 -144 0 -82 3 -274 9 -425 12 -151 4 -266 10 -255
14 12 4 -23 10 -85 15 -214 14 -536 45 -563 52 l-28 8 26 35 c14 19 32 35 40
35 7 0 17 4 22 9 5 5 2 6 -7 2 -8 -4 4 11 28 33 62 57 140 81 267 81 109 0
226 -25 442 -94 202 -65 284 -86 426 -106 175 -26 375 -50 402 -49 40 2 -57
19 -278 49 -125 17 -269 42 -322 55 -52 14 -97 25 -99 25 -3 0 -11 6 -18 14
-16 15 -175 71 -230 81 -21 3 -38 10 -38 14 0 5 -12 6 -26 3 -17 -3 -25 -1
-21 5 4 6 -11 13 -36 16 -23 3 -71 11 -107 17 -36 6 -100 10 -142 7 -43 -2
-78 0 -78 4 0 5 -16 9 -35 9 -19 0 -35 5 -35 10 0 6 -9 10 -20 10 -12 0 -20 7
-20 16 0 13 -7 12 -42 -8 -33 -18 -44 -31 -49 -57 -4 -18 -16 -42 -27 -53 -17
-17 -20 -18 -25 -4 -4 9 -2 16 4 16 5 0 7 11 5 25 -3 17 0 25 9 25 9 0 12 6 9
15 -4 10 -2 13 8 10 8 -3 20 8 32 30 10 19 22 32 26 30 4 -2 6 7 5 20 -2 13 0
23 3 22 13 -4 52 30 44 38 -4 5 -2 5 4 2 14 -8 53 10 78 36 19 19 36 22 36 7z
m-433 -52 c-3 -8 -6 -5 -6 6 -1 11 2 17 5 13 3 -3 4 -12 1 -19z m620 6 c-3 -3
-12 -4 -19 -1 -8 3 -5 6 6 6 11 1 17 -2 13 -5z m-680 -26 c-3 -8 -6 -5 -6 6
-1 11 2 17 5 13 3 -3 4 -12 1 -19z m83 -58 c5 8 8 4 7 -13 -1 -15 -8 -29 -14
-31 -15 -6 -47 36 -33 44 5 3 5 11 0 20 -6 8 -10 22 -9 30 0 8 9 -3 20 -24 15
-28 23 -35 29 -26z m150 15 c0 -12 -83 -95 -95 -95 -7 0 -19 8 -26 18 -12 15
-12 16 1 5 18 -14 32 -7 49 25 7 12 16 20 20 18 5 -3 16 3 26 14 18 20 25 24
25 15z m-27 -80 c-3 -9 -8 -14 -10 -11 -3 3 -2 9 2 15 9 16 15 13 8 -4z m-14
-88 c-30 -25 -40 -28 -79 -23 -68 8 -69 9 -67 20 1 5 -4 10 -12 11 -8 0 -16 7
-18 15 -4 13 -3 13 6 0 9 -13 11 -13 11 3 0 14 5 13 31 -10 31 -28 84 -39 96
-20 3 6 1 7 -5 3 -7 -4 -12 -2 -12 4 0 7 8 9 20 5 12 -4 20 -2 20 5 0 6 8 23
18 38 l17 26 4 -24 c2 -18 -6 -32 -30 -53z m-25 46 c4 -11 1 -11 -14 -3 -24
13 -25 17 -5 17 8 0 16 -6 19 -14z m210 1 c12 -5 8 -12 -20 -30 -19 -13 -40
-24 -47 -24 -7 0 -6 -4 3 -10 11 -7 7 -8 -15 -6 -34 4 -37 15 -9 31 11 5 21
13 24 16 4 5 41 28 47 29 1 0 8 -3 17 -6z m-189 -86 c-3 -8 -20 -23 -38 -33
l-32 -19 34 37 c35 37 46 42 36 15z m-109 -38 c8 0 12 -4 9 -10 -9 -15 -35
-12 -35 4 0 8 -7 16 -15 20 -8 3 -15 13 -15 22 0 12 5 10 21 -10 11 -14 27
-26 35 -26z m99 -25 c-2 -14 1 -25 6 -25 4 0 -3 -16 -16 -36 -31 -46 -31 -52
1 -64 37 -14 38 -13 19 16 -9 15 -13 24 -8 21 5 -3 15 10 22 29 7 18 17 34 22
34 12 0 11 -7 -1 -31 -8 -15 -7 -19 4 -19 10 0 13 -6 10 -17 -5 -14 -4 -15 4
-4 9 12 28 11 129 -9 168 -32 273 -39 567 -40 143 0 256 -3 252 -7 -4 -4 -68
-10 -144 -14 l-137 -7 145 4 c80 2 195 6 255 8 78 3 94 2 55 -4 -31 -4 69 -6
235 -5 193 2 263 0 210 -5 -44 -5 -399 -11 -790 -14 -720 -6 -856 -9 -887 -21
-10 -4 -18 -3 -18 3 0 20 40 25 254 29 121 2 222 6 225 8 2 3 -9 5 -25 5 -68
0 -253 21 -302 34 -39 11 -52 11 -49 3 2 -7 21 -15 43 -19 22 -4 8 -4 -31 -2
-38 3 -80 6 -93 6 -13 0 -21 2 -18 5 8 9 -40 43 -61 44 -16 0 -16 1 2 9 29 13
35 12 35 -5 0 -8 2 -15 4 -15 2 0 11 -3 20 -6 11 -4 16 0 16 12 0 9 7 26 17
36 9 10 11 18 6 18 -6 0 -13 -6 -16 -14 -4 -11 -14 -13 -34 -7 -38 10 -32 25
14 31 24 3 33 8 26 13 -7 5 -19 5 -25 1 -9 -5 -8 -2 1 10 11 13 16 14 23 4 6
-10 10 -7 14 10 9 30 22 28 19 -3z m2303 -92 c-10 -2 -28 -2 -40 0 -13 2 -5 4
17 4 22 1 32 -1 23 -4z m-75 -10 c-7 -2 -19 -2 -25 0 -7 3 -2 5 12 5 14 0 19
-2 13 -5z m80 -10 c-7 -2 -19 -2 -25 0 -7 3 -2 5 12 5 14 0 19 -2 13 -5z m270
0 c-7 -2 -21 -2 -30 0 -10 3 -4 5 12 5 17 0 24 -2 18 -5z m-618 -43 l-40 -7
53 -2 c29 0 51 3 48 7 -7 11 82 4 157 -13 42 -9 132 -11 330 -8 166 2 284 0
302 -6 21 -7 -75 -9 -305 -5 -184 2 -370 4 -412 4 -69 -1 -297 26 -307 36 -2
2 45 3 105 3 78 -1 98 -4 69 -9z m1088 -37 c-7 -2 -21 -2 -30 0 -10 3 -4 5 12
5 17 0 24 -2 18 -5z m-924 -15 c851 -2 850 -3 -14 -18 -341 -7 -637 -14 -657
-17 -23 -3 -38 -1 -38 5 0 6 17 13 38 15 20 3 -89 5 -243 4 -154 -1 -381 0
-505 3 l-225 5 355 6 c195 3 395 4 444 2 49 -1 429 -4 845 -5z m889 -5 c-10
-2 -28 -2 -40 0 -13 2 -5 4 17 4 22 1 32 -1 23 -4z m-2438 -22 c124 -6 84 -7
-197 -7 -194 1 -349 4 -345 8 8 8 291 15 352 10 19 -2 105 -7 190 -11z m675
-11 c-38 -4 -108 -15 -155 -24 -90 -17 -186 -19 -260 -7 l-45 7 55 7 c143 16
255 24 360 24 106 0 109 -1 45 -7z m-698 -21 c87 -12 181 -23 208 -25 52 -4
96 -10 105 -13 15 -7 146 2 220 14 110 19 298 33 435 33 92 0 77 -2 -95 -14
-312 -21 -527 -55 -980 -155 -144 -32 -227 -15 -367 79 -29 19 -53 39 -53 43
0 14 33 26 105 38 151 25 237 25 422 0z m-458 7 c-2 -2 -17 -6 -34 -10 -22 -5
-26 -4 -15 4 14 9 59 15 49 6z m-69 -26 c0 -5 -4 -10 -10 -10 -5 0 -10 5 -10
10 0 6 5 10 10 10 6 0 10 -4 10 -10z"/>
<path d="M3950 4585 c0 -8 2 -15 4 -15 2 0 6 7 10 15 3 8 1 15 -4 15 -6 0 -10
-7 -10 -15z"/>
<path d="M4220 3940 c-14 -4 -52 -16 -85 -25 -33 -10 -67 -24 -76 -31 -19 -17
-33 -18 -23 -2 4 6 -4 3 -18 -8 -14 -10 -24 -21 -22 -23 2 -2 12 2 21 10 10 7
1 -5 -21 -28 -43 -47 -45 -45 59 -62 194 -31 518 -60 745 -66 l145 -4 -170 14
c-221 17 -570 53 -665 67 -55 9 -68 13 -50 18 14 3 25 11 25 17 0 21 79 83
114 89 79 15 214 -7 411 -67 87 -26 81 -37 -8 -15 -87 23 -98 19 -19 -7 37
-13 65 -26 61 -29 -3 -4 11 -10 32 -13 22 -4 52 -11 68 -16 38 -12 139 -12
131 0 -3 6 8 8 27 6 137 -18 240 -26 245 -21 4 3 -5 6 -19 6 -38 0 -211 30
-233 40 -11 6 -45 16 -75 24 -30 8 -79 23 -108 35 -30 12 -58 18 -64 15 -7 -4
-8 -2 -4 4 4 7 0 13 -11 14 -10 1 -25 2 -33 3 -39 4 -96 18 -106 26 -9 7 -246
43 -249 38 0 0 -11 -4 -25 -9z"/>
<path d="M5158 3793 c7 -3 16 -2 19 1 4 3 -2 6 -13 5 -11 0 -14 -3 -6 -6z"/>
<path d="M5358 3793 c6 -2 18 -2 25 0 6 3 1 5 -13 5 -14 0 -19 -2 -12 -5z"/>
<path d="M4353 3773 c9 -2 25 -2 35 0 9 3 1 5 -18 5 -19 0 -27 -2 -17 -5z"/>
<path d="M4480 3760 c30 -5 75 -8 100 -8 l45 1 -55 7 c-30 5 -75 8 -100 8
l-45 -1 55 -7z"/>
<path d="M5775 3750 l-40 -7 37 -2 c20 0 40 4 43 9 3 6 5 9 3 9 -2 -1 -21 -5
-43 -9z"/>
<path d="M4678 3743 c7 -3 16 -2 19 1 4 3 -2 6 -13 5 -11 0 -14 -3 -6 -6z"/>
<path d="M4903 3743 c9 -2 23 -2 30 0 6 3 -1 5 -18 5 -16 0 -22 -2 -12 -5z"/>
<path d="M4978 3733 c12 -2 30 -2 40 0 9 3 -1 5 -23 4 -22 0 -30 -2 -17 -4z"/>
<path d="M5183 3733 c9 -2 25 -2 35 0 9 3 1 5 -18 5 -19 0 -27 -2 -17 -5z"/>
<path d="M5153 3713 c9 -2 23 -2 30 0 6 3 -1 5 -18 5 -16 0 -22 -2 -12 -5z"/>
<path d="M5308 3713 c7 -3 16 -2 19 1 4 3 -2 6 -13 5 -11 0 -14 -3 -6 -6z"/>
<path d="M5018 3703 c6 -2 18 -2 25 0 6 3 1 5 -13 5 -14 0 -19 -2 -12 -5z"/>
<path d="M5218 3703 c12 -2 32 -2 45 0 12 2 2 4 -23 4 -25 0 -35 -2 -22 -4z"/>
<path d="M5373 3703 c15 -2 37 -2 50 0 12 2 0 4 -28 4 -27 0 -38 -2 -22 -4z"/>
<path d="M5903 3643 c9 -2 23 -2 30 0 6 3 -1 5 -18 5 -16 0 -22 -2 -12 -5z"/>
<path d="M3556 6893 c-6 -14 -5 -15 5 -6 7 7 10 15 7 18 -3 3 -9 -2 -12 -12z"/>
<path d="M3715 6885 c19 -58 60 -260 75 -365 4 -30 12 -80 18 -110 6 -30 23
-122 37 -205 14 -82 30 -164 35 -181 6 -17 10 -44 10 -61 0 -16 3 -33 7 -36 3
-4 8 -24 10 -45 2 -20 10 -64 18 -97 8 -33 22 -103 30 -155 14 -86 29 -152 71
-310 8 -30 19 -71 24 -90 26 -103 88 -307 101 -332 5 -10 9 -22 9 -27 0 -20
94 -208 126 -252 19 -26 34 -52 34 -58 0 -7 4 -10 9 -6 5 3 12 -3 15 -13 9
-28 164 -174 237 -223 82 -56 261 -139 329 -154 19 -4 41 -11 50 -16 13 -8
175 -60 320 -104 25 -7 73 -19 108 -25 34 -7 62 -16 62 -21 0 -5 12 -4 26 1
14 6 23 6 20 1 -3 -5 13 -14 37 -20 64 -17 229 -53 257 -55 14 -1 32 -5 40 -8
8 -4 31 -9 50 -12 19 -2 76 -12 125 -20 50 -8 135 -22 190 -31 55 -9 127 -22
160 -30 67 -15 200 -30 229 -26 10 1 16 -2 12 -7 -3 -5 7 -9 22 -9 47 -1 77
-7 84 -18 5 -7 8 -6 8 2 0 8 19 7 68 -6 37 -11 90 -22 117 -25 60 -8 173 -42
194 -59 12 -10 13 -9 7 2 -20 33 -126 62 -446 121 -799 149 -1032 205 -1470
350 -667 222 -785 324 -981 853 -111 298 -313 1095 -404 1592 -31 167 -52 251
-71 285 -10 16 -13 18 -9 5z"/>
<path d="M3536 6834 c-4 -14 -5 -28 -3 -31 3 -2 8 8 11 23 4 14 5 28 3 31 -3
2 -8 -8 -11 -23z"/>
<path d="M3521 6774 c0 -11 3 -14 6 -6 3 7 2 16 -1 19 -3 4 -6 -2 -5 -13z"/>
<path d="M3512 6730 c0 -14 2 -19 5 -12 2 6 2 18 0 25 -3 6 -5 1 -5 -13z"/>
<path d="M3492 6648 c-6 -29 -38 -181 -71 -338 -102 -489 -201 -870 -316
-1215 -100 -301 -170 -448 -272 -572 -43 -53 -137 -128 -214 -171 -119 -67
-435 -181 -809 -292 -228 -67 -528 -139 -795 -191 -406 -77 -644 -131 -675
-150 -16 -11 -12 -10 70 12 53 14 178 40 235 49 28 4 129 22 225 39 96 18 200
36 230 41 30 4 113 20 183 34 71 14 153 29 183 32 32 4 51 11 47 17 -3 6 -1 7
5 4 10 -7 93 10 186 38 26 8 53 12 59 8 6 -4 7 -1 2 7 -6 10 -3 12 14 7 12 -3
41 1 64 8 69 23 191 59 202 60 13 0 114 32 183 56 29 11 64 19 77 19 14 0 25
5 25 10 0 6 7 10 15 10 8 0 23 4 33 9 9 6 45 20 80 33 34 13 62 26 62 30 0 5
7 8 14 8 19 0 153 70 185 95 77 64 97 82 111 100 8 11 28 34 44 50 16 17 35
44 42 60 7 17 13 26 14 20 1 -15 43 58 98 170 50 102 68 144 64 158 -1 4 3 7
9 7 6 0 9 9 6 20 -3 11 -2 20 1 20 10 0 52 111 57 149 2 18 8 38 14 45 6 7 13
30 17 52 3 21 10 47 15 56 5 9 9 27 9 40 1 20 11 53 44 143 6 16 6 17 -3 5
-15 -21 -14 -4 3 33 8 18 22 78 32 135 11 56 22 102 27 102 4 0 5 11 1 25 -4
16 -2 25 6 25 6 0 10 8 9 18 -1 9 1 24 4 32 3 8 8 31 10 50 3 19 15 82 27 140
12 58 23 116 25 130 4 38 55 291 65 325 5 17 11 48 14 70 2 22 9 69 16 104 14
77 7 93 -8 19z"/>
<path d="M3626 6090 c-4 -162 -6 -311 -4 -330 2 -19 7 98 12 260 4 162 6 311
4 330 -2 19 -7 -98 -12 -260z"/>
<path d="M3607 5517 c3 -186 9 -353 13 -370 7 -33 4 129 -10 493 -6 173 -7
148 -3 -123z"/>
<path d="M3643 5785 c0 -22 2 -30 4 -17 2 12 2 30 0 40 -3 9 -5 -1 -4 -23z"/>
<path d="M3772 5745 c0 -16 2 -22 5 -12 2 9 2 23 0 30 -3 6 -5 -1 -5 -18z"/>
<path d="M3653 5650 c0 -36 2 -50 4 -32 2 17 2 47 0 65 -2 17 -4 3 -4 -33z"/>
<path d="M3634 5535 c0 -77 2 -107 3 -67 2 40 2 103 0 140 -2 37 -3 4 -3 -73z"/>
<path d="M3652 5200 c0 -19 2 -27 5 -17 2 9 2 25 0 35 -3 9 -5 1 -5 -18z"/>
<path d="M3237 4655 c-9 -19 -15 -35 -12 -35 7 0 37 61 33 66 -3 2 -12 -12
-21 -31z"/>
<path d="M3632 4670 c0 -14 2 -19 5 -12 2 6 2 18 0 25 -3 6 -5 1 -5 -13z"/>
<path d="M3632 4470 c-1 -74 -4 -180 -7 -235 l-4 -100 10 85 c5 47 8 153 6
235 l-3 150 -2 -135z"/>
<path d="M3289 4112 c6 -12 16 -24 22 -28 8 -4 8 -1 0 14 -6 12 -16 24 -22 28
-8 4 -8 1 0 -14z"/>
<path d="M3364 4086 c5 -14 3 -17 -11 -12 -14 6 -14 4 3 -15 10 -13 34 -36 52
-52 22 -20 29 -32 22 -37 -9 -5 -9 -9 -1 -14 6 -4 11 -2 11 4 0 6 12 -2 26
-19 14 -17 29 -31 34 -31 4 0 -17 28 -48 61 -32 34 -56 66 -54 70 1 5 -3 8 -9
7 -6 -2 -14 3 -17 11 -3 10 0 11 9 5 11 -6 11 -4 -1 12 -22 29 -24 30 -16 10z"/>
<path d="M3270 4020 c0 -5 17 -33 37 -61 42 -59 39 -59 -67 -12 -69 30 -118
38 -245 37 -72 0 -123 -7 -183 -23 -46 -13 -81 -25 -79 -28 2 -2 38 5 78 16
71 20 174 28 251 19 61 -6 55 -18 -9 -18 -77 0 -206 -24 -291 -55 -154 -55
-378 -100 -649 -130 -73 -8 -147 -12 -165 -10 -25 4 -28 3 -13 -4 15 -6 4 -9
-40 -9 -33 0 -114 -12 -180 -27 -66 -15 -142 -31 -170 -35 -27 -5 135 -6 360
-3 226 3 412 7 414 9 2 2 -144 5 -325 5 -181 1 -318 3 -304 5 60 8 298 35 445
50 132 13 391 53 530 80 17 3 88 24 158 45 171 52 240 54 317 11 40 -22 55
-37 54 -51 0 -12 5 -21 12 -21 6 0 26 -6 44 -14 l33 -13 -64 -12 c-84 -14
-355 -39 -494 -46 -262 -12 -340 -31 -117 -29 127 2 131 1 52 -6 -47 -4 -186
-13 -310 -19 -124 -6 -286 -17 -360 -23 -74 -6 -207 -14 -295 -18 l-160 -7
125 0 c69 -1 172 3 230 8 58 4 247 15 420 23 300 14 589 35 785 56 50 5 126
12 170 15 136 10 147 13 139 38 -11 36 -54 87 -102 121 -76 53 -79 57 -22 31
30 -14 61 -25 69 -25 8 0 11 -3 8 -6 -4 -4 7 -22 23 -41 17 -18 30 -38 30 -44
0 -6 4 -8 9 -4 5 3 13 0 17 -6 4 -8 3 -9 -4 -5 -16 10 -15 1 6 -37 14 -27 22
-32 37 -26 32 12 41 9 21 -6 -11 -8 -38 -15 -61 -15 -23 0 -46 -5 -53 -12 -15
-15 -14 -15 -224 -23 -100 -4 -175 -11 -172 -16 3 -5 -14 -9 -38 -10 -24 -1
-81 -4 -128 -7 -47 -4 -247 -6 -445 -6 l-360 1 220 -11 c184 -9 41 -11 -877
-11 -934 0 -1095 -2 -1083 -14 19 -19 120 -35 530 -81 597 -67 843 -100 1190
-161 435 -76 651 -164 880 -356 101 -85 172 -175 266 -336 115 -199 119 -206
134 -220 19 -20 56 -95 76 -157 17 -52 18 -53 14 -15 -3 25 3 11 15 -35 29
-111 47 -261 150 -1240 42 -394 76 -632 97 -672 7 -16 20 -28 28 -28 20 0 32
51 50 215 107 969 170 1471 206 1648 27 133 72 254 128 340 58 90 125 211 111
202 -6 -3 -7 0 -4 9 3 9 10 14 14 11 5 -3 33 30 63 72 111 159 357 365 528
442 233 105 627 170 1669 276 195 20 357 39 360 42 5 6 -33 3 -355 -28 -1106
-105 -1573 -190 -1805 -328 -173 -103 -400 -312 -405 -375 -2 -11 -7 -20 -13
-19 -16 4 -97 -116 -159 -232 -29 -55 -53 -98 -53 -95 0 13 30 101 44 128 20
39 20 43 -1 35 -12 -5 -14 -3 -8 8 5 9 5 11 -2 4 -11 -11 -55 -149 -77 -244
-14 -59 -34 -105 -22 -51 3 14 12 63 21 109 9 47 34 129 56 184 21 54 39 106
39 115 0 10 8 4 23 -15 l23 -32 60 66 c90 101 95 112 29 66 -33 -24 -63 -39
-68 -34 -5 5 -10 21 -12 37 -2 16 -9 61 -15 101 -5 39 -10 89 -11 110 0 21 -7
56 -15 78 -7 22 -12 29 -9 15 16 -99 16 -105 6 -91 -8 12 -11 10 -16 -12 -4
-15 -5 -36 -2 -47 17 -66 -43 36 -84 140 -7 19 -22 51 -34 70 l-20 35 -5 -45
-5 -45 -7 63 c-6 65 -24 96 -59 105 -26 7 -69 -29 -69 -58 0 -13 -4 -27 -10
-30 -5 -3 -10 1 -10 11 0 13 -3 14 -15 4 -24 -20 -19 18 11 86 30 68 39 76 74
68 24 -5 24 -5 5 10 -15 12 -16 15 -5 16 18 0 110 -77 110 -93 0 -6 -14 2 -32
19 -26 24 -24 20 9 -21 23 -27 57 -79 77 -115 20 -36 36 -61 36 -57 0 13 -41
90 -67 125 -42 56 -14 50 39 -8 l49 -55 -22 45 c-23 47 -95 146 -123 169 -30
25 -16 -1 29 -52 60 -69 58 -85 -2 -20 -52 55 -153 123 -181 122 -13 0 -11 -3
6 -9 29 -12 28 -18 -1 -13 -44 9 -50 -27 -57 -322 -4 -188 -2 -308 7 -395 25
-246 45 -392 67 -480 8 -30 17 -79 21 -109 6 -41 10 -50 17 -38 5 10 6 22 2
29 -4 7 -3 8 4 4 15 -9 16 -217 1 -386 -27 -319 -49 -513 -63 -575 -2 -11 -5
-23 -5 -27 -1 -5 -8 -8 -16 -8 -13 0 -15 -26 -15 -175 0 -96 -4 -218 -10 -272
-17 -179 -19 -223 -8 -217 12 7 1 -55 -12 -71 -5 -6 -10 -26 -12 -45 -8 -86
-30 366 -26 529 3 97 2 149 -2 116 -6 -46 -7 -35 -4 45 2 58 7 281 13 495 5
215 14 514 19 665 5 151 9 336 7 410 -4 256 -26 675 -37 720 -7 25 -11 57 -9
71 2 19 -3 28 -18 32 -12 3 -21 13 -21 22 0 12 -6 16 -20 12 -22 -6 -48 17
-30 28 20 12 10 45 -20 60 -30 16 -199 33 -350 36 -47 1 6 6 117 10 112 4 218
12 236 18 38 13 59 41 46 62 -6 9 -9 10 -9 2 0 -21 -57 -43 -107 -42 l-48 2
47 6 c26 4 60 16 74 26 27 21 32 42 9 37 -8 -1 -21 11 -30 28 -8 16 -18 30
-21 30 -2 0 0 -9 6 -20 6 -11 7 -20 2 -20 -5 0 -16 18 -25 40 -8 22 -12 39 -9
38 4 -1 14 2 24 6 14 7 14 11 2 34 -7 15 -18 28 -24 28 -23 3 -24 5 -10 14 12
8 12 10 -3 16 -26 10 -29 1 -12 -39 21 -51 18 -59 -6 -14 -11 21 -18 46 -15
55 3 9 1 24 -5 32 -9 12 -10 11 -5 -5 5 -18 4 -17 -14 4 -11 12 -17 27 -14 32
3 5 -2 6 -11 3 -8 -4 -26 1 -40 10 -28 19 -35 20 -35 6z m-45 -100 c29 -11
124 -85 139 -106 30 -45 28 -55 -12 -53 -20 1 -57 -1 -82 -5 -44 -5 -44 -5 8
8 52 14 77 26 53 26 -7 0 -9 5 -6 11 4 5 -3 18 -14 28 -12 10 -21 24 -21 31 0
7 -7 10 -16 6 -8 -3 -34 5 -57 18 -23 13 -59 29 -80 36 -35 11 -37 13 -20 25
15 11 24 11 53 -2 19 -8 44 -18 55 -23z m145 -10 c0 -5 -2 -10 -4 -10 -3 0 -8
5 -11 10 -3 6 -1 10 4 10 6 0 11 -4 11 -10z m-563 -206 c-3 -3 -12 -4 -19 -1
-8 3 -5 6 6 6 11 1 17 -2 13 -5z m441 -61 c-10 -2 -26 -2 -35 0 -10 3 -2 5 17
5 19 0 27 -2 18 -5z m75 -43 c76 -11 127 -33 127 -55 0 -8 -4 -15 -10 -15 -5
0 -10 7 -10 15 0 8 -7 15 -16 15 -11 0 -14 -5 -10 -16 5 -13 2 -15 -11 -9 -80
34 -120 38 -378 37 -143 -1 -276 2 -295 7 -25 6 13 10 135 12 l170 3 -200 6
c-191 5 -187 6 115 8 173 1 346 -3 383 -8z m-2960 -17 c-7 -2 -19 -2 -25 0 -7
3 -2 5 12 5 14 0 19 -2 13 -5z m1977 -4 c47 -6 132 -15 190 -19 l105 -8 -110
4 c-60 2 -222 7 -360 11 -188 6 -229 9 -165 14 152 10 254 9 340 -2z m-1907
-6 c-7 -2 -21 -2 -30 0 -10 3 -4 5 12 5 17 0 24 -2 18 -5z m228 -18 c41 -3
108 -5 149 -5 150 -2 500 -22 710 -40 203 -19 271 -25 550 -51 63 -6 160 -18
215 -26 55 -8 132 -19 170 -24 39 -4 90 -13 115 -19 73 -17 92 -21 155 -34 33
-7 87 -21 119 -30 89 -26 205 -43 258 -38 27 2 46 7 43 12 -2 4 13 10 35 14
22 3 49 15 61 27 11 11 24 17 28 14 5 -2 12 2 15 11 4 10 2 13 -7 8 -6 -4 -9
-3 -4 1 4 5 28 11 53 13 l45 3 -34 -68 c-44 -88 -102 -234 -138 -350 -16 -51
-34 -95 -39 -98 -6 -4 -8 -10 -5 -15 3 -5 1 -11 -4 -15 -6 -3 -7 -13 -4 -21
10 -27 -23 -3 -137 98 -223 198 -371 291 -550 346 -229 70 -857 169 -1570 247
-401 44 -522 60 -374 49 39 -3 105 -7 145 -9z m2646 -7 c34 -5 70 -16 80 -24
17 -12 15 -16 -30 -57 -55 -51 -145 -102 -198 -111 -25 -4 -85 6 -210 38 -95
24 -226 52 -289 62 -86 14 -105 20 -76 22 30 3 36 6 25 14 -10 7 -7 8 14 5 15
-2 25 -2 22 1 -12 12 223 53 340 61 136 8 231 5 322 -11z m-1539 5 c-16 -2
-40 -2 -55 0 -16 2 -3 4 27 4 30 0 43 -2 28 -4z m207 -13 l60 -7 -50 0 c-27 0
-81 3 -120 7 l-70 7 60 0 c33 1 87 -3 120 -7z m515 -10 c3 -4 14 -10 25 -13
42 -10 -49 -7 -114 5 -99 17 -99 30 -1 22 47 -4 87 -10 90 -14z m960 -23 c0
-2 -10 -12 -22 -23 l-23 -19 19 23 c18 21 26 27 26 19z m-913 -23 c-3 -3 -12
-4 -19 -1 -8 3 -5 6 6 6 11 1 17 -2 13 -5z m891 -41 c-9 -10 -14 -23 -11 -29
2 -6 -3 -16 -11 -23 -12 -10 -14 -8 -9 11 6 22 31 58 41 58 3 0 -2 -8 -10 -17z
m48 5 c4 -7 3 -8 -4 -4 -7 4 -12 2 -12 -5 0 -7 -3 -10 -6 -6 -6 5 3 27 11 27
2 0 7 -5 11 -12z m54 -2 c0 -11 -19 -15 -25 -6 -3 5 1 10 9 10 9 0 16 -2 16
-4z m70 -16 c0 -5 -2 -10 -4 -10 -3 0 -8 5 -11 10 -3 6 -1 10 4 10 6 0 11 -4
11 -10z m-16 -72 c9 -28 16 -58 17 -67 1 -10 4 -6 10 9 7 22 8 20 5 -10 -2
-19 3 -136 10 -260 14 -245 15 -316 3 -235 -4 30 -5 4 -2 -63 6 -125 -6 -536
-15 -527 -3 3 -6 186 -5 408 0 221 -2 370 -6 330 -3 -40 -10 -77 -16 -82 -5
-5 -8 -38 -6 -73 3 -48 6 -57 12 -38 6 21 7 19 8 -15 0 -22 -4 -47 -9 -55 -8
-12 -10 -10 -10 9 0 13 -2 22 -5 20 -2 -3 -7 -66 -10 -141 -2 -74 -9 -146 -14
-159 -10 -24 -10 -19 4 264 3 59 8 115 11 125 4 14 4 14 -4 2 -5 -8 -14 -41
-21 -73 -13 -58 -13 -59 -27 -32 -19 36 -54 80 -64 80 -5 0 -21 15 -35 34 -14
19 -25 29 -25 22 0 -7 -4 -10 -8 -7 -29 18 27 -111 78 -179 16 -22 30 -51 31
-65 1 -24 1 -24 10 5 4 16 6 39 3 52 -4 15 -2 23 6 23 10 0 12 -22 7 -97 -4
-54 -7 -126 -7 -160 0 -69 -14 -84 -23 -26 -4 20 -38 102 -77 183 -68 141
-101 254 -70 235 9 -5 11 -4 6 3 -4 7 -3 27 2 45 8 29 6 37 -24 71 -19 22 -34
45 -34 52 0 18 58 179 90 249 48 108 140 212 175 199 7 -3 20 -28 29 -56z
m-129 21 c-2 -17 -13 -41 -23 -53 -11 -11 -36 -54 -57 -95 -20 -40 -39 -71
-42 -68 -3 3 13 40 35 81 22 42 36 76 32 76 -4 0 -13 -12 -20 -27 -7 -16 -15
-23 -17 -16 -2 6 10 33 26 60 30 47 41 53 20 10 -9 -20 -9 -20 4 -5 8 10 16
15 19 12 4 -3 9 0 14 7 4 8 3 10 -4 5 -15 -9 -15 -1 -2 25 15 27 20 24 15 -12z
m-120 -129 c-13 -36 -24 -57 -24 -47 -1 19 39 120 45 114 2 -1 -8 -32 -21 -67z
m514 -82 c18 -73 34 -139 36 -145 2 -7 0 -13 -5 -13 -4 0 -11 14 -15 30 -4 17
-11 30 -15 30 -5 0 -7 6 -4 14 4 12 -1 42 -36 184 -4 17 -4 32 0 32 5 0 22
-60 39 -132z m-141 -51 c-1 -18 1 -63 4 -102 6 -56 5 -61 -2 -26 -13 61 -20
213 -9 183 5 -13 8 -38 7 -55z m235 -9 c-7 -12 -20 -9 -20 5 0 6 -2 17 -3 22
-7 29 3 36 15 10 7 -16 11 -33 8 -37z m-196 -30 c-3 -8 -6 -5 -6 6 -1 11 2 17
5 13 3 -3 4 -12 1 -19z m200 -28 c0 -22 -3 -40 -8 -40 -5 0 -6 8 -2 18 5 14 3
13 -10 -3 -14 -17 -16 -18 -17 -3 0 24 18 68 28 68 5 0 9 -18 9 -40z m-227
-385 c12 -88 24 -173 26 -190 4 -28 4 -28 -6 -6 -25 58 -51 252 -55 411 -4
159 -3 161 5 55 5 -60 19 -182 30 -270z m202 310 c-2 -14 -8 -22 -13 -19 -5 3
-5 14 1 25 14 26 18 24 12 -6z m67 -5 c11 -24 11 -24 -3 -6 -9 11 -16 24 -16
30 0 12 5 7 19 -24z m-251 -140 c0 -16 -3 -11 -9 15 -4 22 -8 51 -7 65 0 16 3
11 9 -15 4 -22 8 -51 7 -65z m162 83 c1 -17 1 -17 11 0 15 25 32 22 18 -4 -14
-28 3 -48 26 -29 10 8 15 9 15 1 0 -6 -5 -11 -12 -11 -9 0 -9 -3 0 -12 22 -22
15 -78 -20 -155 -6 -12 -10 -33 -10 -47 0 -14 -4 -26 -7 -26 -4 0 -13 -24 -20
-52 -14 -61 -31 -98 -43 -98 -18 0 3 287 22 300 4 3 10 18 14 33 4 18 11 25
19 21 7 -4 9 -4 5 1 -4 4 -3 14 3 21 6 8 7 14 0 18 -14 9 -60 -74 -92 -168
-16 -44 -28 -73 -29 -64 0 9 -3 24 -7 34 -5 12 -3 15 6 9 10 -6 12 3 10 39 -3
31 -1 45 7 42 11 -4 34 55 34 85 0 11 -2 11 -11 -1 -8 -11 -9 -9 -3 10 10 37
26 61 18 29 -3 -15 -1 -30 5 -33 6 -4 11 1 12 11 1 10 2 23 4 28 1 6 3 16 3
23 3 19 22 14 22 -5z m-560 -49 c0 -8 -5 -12 -10 -9 -6 4 -8 11 -5 16 9 14 15
11 15 -7z m708 -9 c-6 -14 -13 -23 -15 -21 -5 5 15 46 22 46 3 0 -1 -11 -7
-25z m-582 -161 c15 -19 24 -37 21 -40 -2 -3 -15 10 -28 28 -13 18 -26 35 -30
38 -9 7 -39 79 -39 94 0 6 12 -11 25 -37 14 -27 37 -64 51 -83z m719 55 c-9
-17 -19 -29 -22 -26 -5 5 25 57 33 57 3 0 -3 -14 -11 -31z m-208 -101 c-3 -8
-6 -5 -6 6 -1 11 2 17 5 13 3 -3 4 -12 1 -19z m-747 -52 c0 -12 -5 -7 -19 24
-11 24 -11 24 3 6 9 -11 16 -24 16 -30z m357 -8 c-3 -8 -6 -5 -6 6 -1 11 2 17
5 13 3 -3 4 -12 1 -19z m-337 -29 c0 -6 -4 -7 -10 -4 -5 3 -10 11 -10 16 0 6
5 7 10 4 6 -3 10 -11 10 -16z m545 -69 c12 0 26 -68 24 -114 0 -18 -3 -16 -15
9 -13 26 -14 27 -10 5 11 -49 19 -135 12 -129 -14 13 -46 192 -45 248 l2 56
10 -37 c6 -21 16 -38 22 -38z m2 28 c-3 -8 -6 -5 -6 6 -1 11 2 17 5 13 3 -3 4
-12 1 -19z m45 -427 c7 10 8 7 5 -11 -3 -14 -11 -88 -17 -165 -23 -290 -51
-602 -60 -660 -8 -56 -9 -54 -4 25 2 47 9 137 14 200 29 333 40 492 41 555 0
39 3 64 6 56 5 -11 7 -11 15 0z"/>
<path d="M3360 3576 c0 -2 7 -7 16 -10 8 -3 12 -2 9 4 -6 10 -25 14 -25 6z"/>
<path d="M3596 3989 c-3 -17 -6 -43 -6 -58 0 -14 -5 -33 -11 -41 -8 -11 -9 -8
-4 15 6 29 6 29 -14 11 -26 -24 -27 -46 -1 -46 25 0 36 22 44 93 7 61 2 77 -8
26z"/>
<path d="M3370 4006 c0 -2 7 -7 16 -10 8 -3 12 -2 9 4 -6 10 -25 14 -25 6z"/>
<path d="M3621 3960 c-1 -19 -6 -55 -12 -79 -5 -24 -8 -46 -5 -48 8 -8 28 106
23 134 -3 25 -4 24 -6 -7z"/>
<path d="M2635 3909 c-55 -18 -299 -76 -399 -95 -54 -10 -94 -20 -88 -22 14
-4 269 44 362 69 98 27 189 58 170 57 -8 0 -28 -4 -45 -9z"/>
<path d="M3647 3873 c7 -71 11 -75 12 -10 1 31 -3 57 -8 57 -5 0 -6 -21 -4
-47z"/>
<path d="M3510 3860 c8 -5 20 -10 25 -10 6 0 3 5 -5 10 -8 5 -19 10 -25 10 -5
0 -3 -5 5 -10z"/>
<path d="M3454 3828 c-4 -7 -4 -10 1 -6 4 4 17 2 29 -4 19 -10 20 -10 7 5 -16
20 -27 21 -37 5z"/>
<path d="M3596 3803 c3 -13 1 -23 -5 -23 -6 0 -8 -7 -4 -16 5 -14 8 -12 19 7
16 28 18 42 5 35 -5 -4 -12 0 -15 6 -3 7 -3 3 0 -9z"/>
<path d="M2093 3783 c9 -2 23 -2 30 0 6 3 -1 5 -18 5 -16 0 -22 -2 -12 -5z"/>
<path d="M3053 3773 c9 -2 23 -2 30 0 6 3 -1 5 -18 5 -16 0 -22 -2 -12 -5z"/>
<path d="M2973 3763 c9 -2 23 -2 30 0 6 3 -1 5 -18 5 -16 0 -22 -2 -12 -5z"/>
<path d="M3335 3710 c-11 -5 -36 -13 -55 -18 -34 -10 -33 -10 10 -5 55 7 87
18 74 25 -5 3 -18 2 -29 -2z"/>
<path d="M3616 3694 c-4 -9 -4 -19 -1 -22 2 -3 7 3 11 12 4 9 4 19 1 22 -2 3
-7 -3 -11 -12z"/>
<path d="M274 3684 c-18 -14 -18 -15 4 -4 12 6 22 13 22 15 0 8 -5 6 -26 -11z"/>
<path d="M2393 3693 c9 -2 25 -2 35 0 9 3 1 5 -18 5 -19 0 -27 -2 -17 -5z"/>
<path d="M2430 3640 l-135 -6 140 -1 c77 -1 178 2 225 6 l85 8 -90 -1 c-49 0
-151 -3 -225 -6z"/>
<path d="M7121 3624 c0 -11 3 -14 6 -6 3 7 2 16 -1 19 -3 4 -6 -2 -5 -13z"/>
<path d="M3547 3566 c12 -15 25 -40 28 -56 4 -17 13 -30 21 -30 17 0 -29 90
-53 104 -13 7 -11 2 4 -18z"/>
<path d="M277 3549 c7 -7 15 -10 18 -7 3 3 -2 9 -12 12 -14 6 -15 5 -6 -5z"/>
<path d="M3673 3548 c-6 -7 -14 -65 -18 -128 -10 -141 -10 -130 -5 -325 l4
-160 6 245 c4 175 10 254 20 275 7 17 14 34 14 40 1 5 11 12 24 15 21 5 22 6
8 25 -16 20 -16 20 -36 -5 -21 -27 -27 -21 -10 11 12 21 8 25 -7 7z"/>
<path d="M6828 3553 c6 -2 18 -2 25 0 6 3 1 5 -13 5 -14 0 -19 -2 -12 -5z"/>
<path d="M7029 3540 c-26 -10 -64 -20 -86 -22 -21 -2 -43 -7 -48 -10 -13 -8
-75 -17 -160 -24 -38 -3 -72 -7 -76 -10 -4 -2 -47 -6 -95 -9 -49 -3 -127 -12
-174 -20 -47 -8 -97 -15 -112 -15 -16 0 -28 -5 -28 -11 0 -5 -3 -8 -7 -6 -5 3
-44 1 -88 -4 -76 -8 -101 -12 -275 -40 -41 -6 -92 -13 -113 -15 -20 -2 -41 -5
-46 -8 -5 -3 -28 -8 -51 -11 -24 -3 -48 -9 -53 -12 -6 -4 -23 -8 -37 -10 -23
-2 -54 -8 -250 -49 -77 -16 -303 -75 -375 -99 -27 -8 -66 -21 -85 -27 -108
-33 -376 -180 -364 -200 3 -4 -1 -8 -8 -8 -19 0 -80 -64 -71 -75 5 -4 3 -5 -3
-2 -11 6 -73 -56 -101 -99 -39 -61 -124 -214 -133 -239 -6 -16 -14 -39 -19
-50 -26 -56 -56 -155 -92 -300 -22 -88 -50 -203 -64 -255 -22 -86 -36 -158
-66 -345 -5 -33 -21 -123 -35 -200 -14 -77 -34 -194 -44 -260 -11 -66 -24
-141 -30 -167 -7 -25 -13 -57 -15 -70 -2 -12 -13 -88 -24 -168 -24 -164 -67
-362 -87 -402 -8 -15 -24 -34 -36 -42 -12 -9 -18 -16 -12 -16 24 0 64 59 83
125 11 39 52 225 90 415 175 868 204 990 328 1395 157 512 271 671 581 817
148 70 445 161 797 244 221 52 554 117 860 169 486 81 653 118 670 146 8 11 9
12 -46 -11z"/>
<path d="M420 3502 c14 -10 265 -65 440 -96 427 -78 530 -98 565 -106 22 -6
130 -30 240 -55 302 -69 629 -160 785 -220 320 -122 452 -257 579 -591 137
-359 275 -883 401 -1519 29 -143 54 -262 57 -265 7 -6 -3 63 -16 115 -5 22
-13 65 -16 95 -3 30 -11 75 -16 100 -14 57 -31 168 -31 198 0 12 -5 22 -10 22
-7 0 -8 17 -4 46 3 28 2 43 -4 39 -6 -4 -10 6 -10 22 0 15 -9 70 -20 122 -11
52 -18 97 -15 99 3 3 1 10 -4 16 -5 6 -12 31 -14 56 -3 25 -10 68 -16 95 -5
28 -15 80 -22 118 -7 37 -16 67 -21 67 -5 0 -5 12 -2 26 5 19 4 25 -5 20 -7
-5 -11 2 -11 19 0 14 -6 47 -14 73 -8 26 -20 73 -27 104 -6 32 -15 55 -19 53
-3 -2 -7 10 -7 28 0 50 -82 294 -139 412 -58 123 -97 176 -227 306 -69 69 -94
86 -210 144 -132 65 -349 141 -371 128 -6 -3 -8 -2 -3 2 10 12 -152 53 -428
110 -38 8 -113 23 -165 34 -52 11 -126 25 -165 31 -38 7 -92 16 -120 22 -27 5
-86 13 -130 19 -44 5 -138 18 -210 29 -71 12 -161 23 -198 25 -38 2 -74 8 -80
13 -7 5 -39 9 -72 10 -54 2 -199 24 -243 38 -14 5 -14 4 -2 -4z"/>
<path d="M3749 3313 c-13 -16 -12 -17 4 -4 16 13 21 21 13 21 -2 0 -10 -8 -17
-17z"/>
<path d="M3981 2184 c0 -11 3 -14 6 -6 3 7 2 16 -1 19 -3 4 -6 -2 -5 -13z"/>
<path d="M3668 1783 c-2 -181 0 -353 3 -383 3 -30 7 117 8 328 0 210 -1 382
-3 382 -3 0 -6 -147 -8 -327z"/>
<path d="M3401 1624 c0 -11 3 -14 6 -6 3 7 2 16 -1 19 -3 4 -6 -2 -5 -13z"/>
<path d="M3412 1550 c0 -14 2 -19 5 -12 2 6 2 18 0 25 -3 6 -5 1 -5 -13z"/>
<path d="M3422 1490 c0 -14 2 -19 5 -12 2 6 2 18 0 25 -3 6 -5 1 -5 -13z"/>
<path d="M3432 1420 c0 -14 2 -19 5 -12 2 6 2 18 0 25 -3 6 -5 1 -5 -13z"/>
<path d="M3442 1355 c0 -16 2 -22 5 -12 2 9 2 23 0 30 -3 6 -5 -1 -5 -18z"/>
<path d="M3851 1344 c0 -11 3 -14 6 -6 3 7 2 16 -1 19 -3 4 -6 -2 -5 -13z"/>
<path d="M3453 1285 c0 -22 2 -30 4 -17 2 12 2 30 0 40 -3 9 -5 -1 -4 -23z"/>
<path d="M3462 1215 c0 -16 2 -22 5 -12 2 9 2 23 0 30 -3 6 -5 -1 -5 -18z"/>
<path d="M3475 1135 c5 -64 64 -467 70 -480 10 -21 -8 118 -41 320 -18 116
-32 188 -29 160z"/>
<path d="M3492 615 c0 -16 2 -22 5 -12 2 9 2 23 0 30 -3 6 -5 -1 -5 -18z"/>
<path d="M3552 610 c0 -19 2 -27 5 -17 2 9 2 25 0 35 -3 9 -5 1 -5 -18z"/>
<path d="M3507 545 c3 -22 7 -42 9 -44 8 -9 2 45 -6 64 -7 14 -8 8 -3 -20z"/>
<path d="M3562 545 c0 -16 2 -22 5 -12 2 9 2 23 0 30 -3 6 -5 -1 -5 -18z"/>
<path d="M3572 485 c0 -16 2 -22 5 -12 2 9 2 23 0 30 -3 6 -5 -1 -5 -18z"/>
<path d="M3651 454 c0 -11 3 -14 6 -6 3 7 2 16 -1 19 -3 4 -6 -2 -5 -13z"/>
<path d="M3582 430 c0 -14 2 -19 5 -12 2 6 2 18 0 25 -3 6 -5 1 -5 -13z"/>
</g>
</svg>
